<svg version="1.1" id="Layer_1" xmlns="http://www.w3.org/2000/svg" xmlns:xlink="http://www.w3.org/1999/xlink" x="0px" y="0px"
	 width="100%" viewBox="0 0 276 262" enable-background="new 0 0 276 262" xml:space="preserve">
<path fill="#142226" opacity="1.000000" stroke="none" 
	d="
M277.000000,3.000000 
	C277.000000,35.354229 277.000000,67.708458 276.728394,100.846268 
	C276.305237,102.603691 276.021606,103.577477 276.021118,104.551407 
	C275.999756,146.960999 275.993896,189.370621 276.046021,231.780167 
	C276.047760,233.187164 276.668030,234.593399 277.000000,236.000000 
	C277.000000,244.992996 277.000000,253.986008 277.000000,262.984253 
	C185.078537,262.989502 93.157066,262.989502 1.000000,262.989502 
	C1.000000,176.645920 1.000000,90.291618 1.468609,3.460792 
	C93.624809,2.989512 185.312408,2.994756 277.000000,3.000000 
M242.951019,221.950882 
	C242.951019,221.950882 242.863510,221.947357 243.382690,221.655869 
	C243.549545,221.303619 243.716385,220.951370 244.016434,219.912048 
	C245.946350,216.028229 246.394836,211.597626 243.184982,208.838409 
	C240.385300,206.431793 236.098373,205.755310 232.468567,204.314392 
	C232.206604,204.711227 231.944656,205.108063 231.682693,205.504898 
	C231.528473,202.772217 231.374252,200.039551 231.207123,197.077972 
	C229.610107,197.077972 228.311905,197.077972 226.835464,196.780060 
	C226.553070,196.865723 226.270676,196.951401 225.466812,197.614716 
	C224.896744,200.147217 224.326675,202.679718 222.967697,205.146271 
	C219.886322,204.828445 218.754410,206.387985 218.863007,209.285980 
	C218.937683,211.278809 219.387848,213.488403 218.699097,215.213394 
	C218.024902,216.901993 216.120560,218.099442 214.756165,219.512466 
	C213.473083,218.114975 211.658188,216.913361 211.051712,215.266693 
	C210.403702,213.507126 210.841217,211.325958 210.902435,209.331818 
	C211.010696,205.805389 209.532578,204.730286 205.601120,205.795135 
	C204.865662,202.907547 204.130203,200.019943 202.817871,196.540070 
	C199.965775,195.403198 198.786316,196.469315 198.866943,199.427887 
	C198.942047,202.183380 198.882996,204.942505 198.882996,207.796387 
	C194.278488,207.796387 190.383286,207.796387 185.929657,207.796387 
	C185.929657,204.854706 186.218643,202.191879 185.811996,199.639908 
	C185.597443,198.293518 184.169754,197.140442 183.289795,195.900101 
	C182.555710,197.117157 181.214951,198.320908 181.187927,199.553452 
	C181.034988,206.525101 181.341110,213.506729 181.191132,220.478531 
	C181.115738,223.982285 182.891144,224.314316 186.288300,223.447052 
	C186.525116,222.188889 187.098251,220.886353 186.939102,219.680450 
	C186.329575,215.061874 188.286179,213.900635 192.743759,213.838455 
	C197.409058,213.773376 198.460052,215.645721 198.037308,219.677338 
	C197.926697,220.732162 198.486420,221.857285 199.082718,223.455093 
	C199.399307,223.707321 199.715897,223.959534 200.481522,224.611008 
	C201.301941,224.334915 202.122375,224.058823 203.026489,223.352600 
	C203.026489,223.352600 203.232742,222.966003 203.688934,222.344437 
	C204.445343,220.923737 205.201736,219.503036 206.165176,218.349274 
	C206.165176,218.349274 206.018936,218.653824 206.167526,219.192841 
	C206.412125,219.464478 206.656738,219.736115 207.296677,220.465302 
	C208.227234,221.512451 209.157791,222.559601 210.544693,224.314713 
	C214.377396,224.215851 218.210098,224.116974 222.552811,223.858658 
	C222.907349,223.848557 223.261871,223.838470 224.501419,223.943649 
	C225.599823,224.217056 226.753601,224.856491 227.787003,224.700165 
	C232.133148,224.042709 236.971497,228.221390 241.086426,223.129059 
	C241.274536,222.980087 241.488525,222.908463 242.265533,222.739594 
	C242.491364,222.447617 242.717178,222.155640 242.951019,221.950882 
M124.393616,81.035553 
	C124.116814,81.305489 123.840019,81.575417 123.053001,82.249748 
	C111.955109,93.606773 111.489037,109.995346 122.000549,119.999466 
	C122.000549,119.999466 121.966362,120.021812 122.228012,120.615547 
	C123.479805,121.409554 124.731598,122.203560 126.357285,123.595901 
	C132.923508,127.134628 139.624420,129.540207 147.772232,126.042160 
	C158.946640,122.466469 166.458130,110.883438 164.268356,100.105232 
	C164.239166,98.800552 164.209976,97.495872 164.394409,95.900459 
	C164.249832,95.615158 164.105270,95.329857 163.710480,94.623764 
	C163.710480,94.623764 163.296661,94.362152 163.372223,93.872887 
	C163.329269,93.534424 163.194778,93.237411 162.995132,92.300644 
	C162.407730,91.356552 161.820328,90.412468 161.212387,89.168167 
	C161.212387,89.168167 160.979721,88.977341 160.917496,88.360466 
	C160.275955,87.595650 159.634415,86.830841 158.798630,85.585281 
	C158.522415,85.387276 158.246201,85.189270 157.827652,84.375908 
	C156.883209,83.603615 155.938782,82.831314 154.729889,81.591118 
	C154.267349,81.338615 153.804794,81.086105 152.975876,80.256561 
	C151.328369,79.499672 149.680862,78.742783 147.743256,77.786964 
	C147.743256,77.786964 147.395035,77.836838 146.761002,77.346199 
	C140.591248,75.529449 134.572388,75.520859 128.919632,78.869431 
	C128.919632,78.869431 128.921371,78.777306 128.292847,78.790085 
	C127.803238,79.140236 127.313629,79.490395 126.911850,79.869621 
	C126.911850,79.869621 126.915161,79.777168 126.309402,79.848862 
	C125.844658,80.211739 125.379921,80.574623 124.976379,80.984550 
	C124.976379,80.984550 124.966728,80.907951 124.393616,81.035553 
M162.012589,206.312241 
	C154.715576,203.976898 151.092072,205.445328 147.269913,211.895050 
	C144.746429,205.885742 138.059036,202.947357 132.339340,205.475296 
	C131.652145,205.779022 130.958801,206.954956 130.940353,207.742371 
	C130.817108,212.999939 130.876358,218.261765 130.876358,223.887634 
	C132.812637,223.887634 134.253769,223.887634 136.516983,223.925919 
	C138.393921,223.617386 140.270874,223.308838 142.679688,223.528366 
	C143.977875,223.599930 145.276062,223.671509 146.054596,223.714432 
	C146.840515,220.607132 147.432404,218.266968 148.233917,216.598007 
	C152.042847,223.621109 155.937195,225.310791 163.843048,222.983414 
	C165.093597,222.920609 166.344162,222.857788 168.245972,222.938202 
	C170.500763,223.285431 172.820175,224.110275 174.988266,223.816864 
	C176.506912,223.611374 177.818954,221.879150 179.223267,220.828766 
	C177.626297,220.364761 175.894669,219.263519 174.459793,219.566666 
	C171.268524,220.240936 169.262833,219.505844 167.655060,216.028793 
	C170.014709,216.028793 171.865005,216.307632 173.584839,215.953278 
	C175.442368,215.570557 178.759064,214.413605 178.701004,213.910172 
	C178.403366,211.329559 177.930603,208.070862 176.201111,206.501938 
	C172.809708,203.425400 168.776962,204.764175 164.502472,207.035370 
	C163.807022,207.016922 163.111588,206.998489 162.012589,206.312241 
M68.869904,210.384476 
	C67.984589,215.586197 69.054565,219.988724 74.046188,222.694901 
	C78.007492,224.842484 81.836174,224.687042 85.519852,222.147263 
	C83.914581,215.289276 76.352470,222.896042 74.383057,216.801788 
	C76.654411,216.801788 78.901840,217.205261 80.897087,216.669540 
	C82.395821,216.267120 83.570580,214.658157 85.847534,213.218872 
	C86.289619,214.410568 86.745506,215.597336 87.171516,216.794754 
	C89.721809,223.962860 96.441086,226.175476 103.158676,221.883743 
	C101.662262,215.023544 94.281006,222.508316 91.913948,216.886459 
	C93.870064,216.886459 95.665001,217.186874 97.303719,216.809296 
	C99.285469,216.352661 102.448250,215.685211 102.784645,214.468750 
	C103.643425,211.363235 103.537979,207.902451 99.670593,206.000183 
	C94.869995,203.638870 89.641594,205.662354 86.967438,211.065445 
	C86.652603,211.701553 85.600998,211.973038 85.042587,211.629501 
	C82.615540,203.845428 76.207748,202.820648 68.331192,208.523544 
	C68.268410,207.405930 68.205635,206.288315 68.145981,205.226334 
	C64.040138,205.513672 60.183395,205.783585 56.061394,206.072067 
	C56.061394,210.874527 55.876236,215.864029 56.186653,220.822479 
	C56.268120,222.123810 57.885887,223.328964 58.798130,224.578293 
	C60.762131,211.203323 61.028980,210.751526 68.869904,210.384476 
M122.807808,211.801331 
	C121.180336,211.977112 119.001091,211.562943 118.045273,212.456879 
	C116.291389,214.097214 114.237076,216.510773 114.241226,218.598145 
	C114.244698,220.340668 116.792274,223.225372 118.601860,223.571381 
	C122.064316,224.233429 125.803146,223.450104 129.970795,223.239059 
	C129.725494,219.968964 129.714142,216.352722 129.135864,212.829544 
	C127.926788,205.463043 123.210114,203.334625 114.715355,207.401215 
	C118.579948,208.768158 121.406563,209.767960 123.844330,211.216202 
	C123.731392,211.378662 123.618462,211.541107 122.807808,211.801331 
M103.859062,96.411957 
	C103.783615,95.993111 103.708176,95.574272 104.125008,94.815285 
	C103.715813,94.208702 103.306625,93.602127 102.368507,92.597313 
	C95.735077,83.712715 85.589684,81.336861 76.990349,86.654236 
	C69.103371,91.531128 66.469078,102.086708 70.957954,110.825890 
	C74.785538,118.277611 83.419724,121.917732 92.243271,119.799622 
	C100.550941,117.805351 104.927368,110.857597 105.166885,99.790634 
	C104.811401,98.861526 104.455925,97.932426 103.859062,96.411957 
M95.601395,158.047623 
	C100.538506,154.477249 104.883751,155.965591 109.512489,159.081604 
	C113.628334,161.852371 118.322029,163.750900 122.647331,166.231995 
	C124.134308,167.084961 125.582283,168.331345 126.529999,169.745270 
	C131.985977,177.885101 145.968399,178.516312 152.295181,171.056198 
	C154.427979,168.541367 157.231888,166.448990 160.063431,164.707001 
	C164.588257,161.923264 169.472122,159.728119 174.046844,157.018494 
	C176.548203,155.536880 178.504044,155.298737 181.318695,156.654877 
	C188.997665,160.354767 197.347458,157.583679 200.612106,150.755402 
	C203.252884,145.232025 202.451065,138.707031 198.601898,134.396744 
	C194.645981,129.966919 187.759399,128.292923 182.132965,130.393448 
	C176.633240,132.446655 173.391312,137.427200 172.974808,144.021439 
	C172.883286,145.470566 172.440521,147.534042 171.433121,148.177658 
	C167.271744,150.836319 162.831161,153.057983 158.426025,155.477112 
	C155.473083,144.475754 150.070129,139.195496 140.797974,139.235764 
	C136.982101,139.252319 132.304764,139.996353 129.570145,142.272629 
	C125.668488,145.520294 123.193108,150.481445 119.892792,155.006546 
	C117.258217,153.542725 113.734940,151.350983 110.007645,149.591461 
	C107.243454,148.286606 106.323906,146.666840 106.369217,143.498611 
	C106.461250,137.063339 102.468315,131.920456 96.934265,130.207794 
	C90.724907,128.286148 83.982872,130.150085 80.180847,134.839554 
	C76.616310,139.236099 75.928596,146.375946 78.977188,151.294388 
	C82.600464,157.139999 88.034317,159.329971 95.601395,158.047623 
M180.354782,47.968086 
	C178.654175,48.060684 176.659058,48.773468 175.307266,48.131531 
	C170.961731,46.067917 166.816681,43.566814 162.665726,41.113583 
	C159.280365,39.112816 155.361786,37.524410 152.788284,34.731571 
	C145.047943,26.331501 132.942566,26.499374 126.000168,35.587521 
	C125.335602,36.457497 124.486763,37.303761 123.538017,37.820595 
	C117.415062,41.156124 111.167953,44.270142 105.118538,47.731163 
	C102.691727,49.119602 100.973198,49.214844 98.395721,47.770157 
	C90.512703,43.351715 81.011284,46.796333 78.123154,54.800377 
	C76.017891,60.634808 76.856163,66.043907 81.318184,70.467575 
	C85.989777,75.099014 91.823051,75.466751 97.595757,73.342438 
	C103.427811,71.196289 106.363968,66.564461 106.728737,60.256355 
	C106.809242,58.864151 107.418747,56.887047 108.441154,56.273815 
	C112.382385,53.909889 116.589752,51.989689 121.098831,49.700562 
	C123.280487,59.939945 129.509369,65.673950 139.607513,65.604950 
	C150.202744,65.532578 156.885651,59.875450 158.198990,48.530773 
	C162.326462,50.898228 165.707672,53.013321 169.249420,54.812393 
	C171.980789,56.199814 173.324249,57.675095 173.174210,61.199146 
	C172.911453,67.370163 177.976852,72.961433 183.735580,74.042862 
	C191.615265,75.522575 198.096649,72.535881 200.841049,66.160484 
	C203.339691,60.355946 202.400070,54.063965 198.113144,50.001644 
	C193.077301,45.229649 187.297729,44.585323 180.354782,47.968086 
M195.037735,84.121887 
	C193.379852,84.095497 191.709717,83.926285 190.066162,84.067039 
	C182.271393,84.734573 176.461380,89.879242 174.769760,97.500336 
	C172.896790,105.938538 175.743027,114.039841 181.986099,117.651917 
	C188.927475,121.668022 196.085464,121.706894 202.689423,117.302368 
	C209.293320,112.897896 211.265610,106.043320 209.975601,98.471100 
	C208.636414,90.610260 203.638779,85.953209 195.037735,84.121887 
M35.436119,220.112213 
	C34.990509,224.490082 37.306709,224.655609 40.915878,223.581268 
	C40.915878,219.709030 40.915878,215.956665 40.915878,213.395523 
	C44.087887,209.522919 50.744026,215.451370 52.067173,207.132187 
	C47.927891,207.132187 44.554756,207.132187 40.964893,207.132187 
	C41.074791,204.749588 41.155434,203.001175 41.252296,200.901154 
	C45.867466,200.901154 50.131405,200.901154 54.669319,200.901154 
	C54.669319,199.153381 54.669319,197.773712 54.669319,196.392029 
	C48.233013,196.392029 42.031891,196.392029 35.440456,196.392029 
	C35.440456,204.283325 35.440456,211.736877 35.436119,220.112213 
M111.446251,223.891418 
	C111.711357,222.428986 112.410904,220.881775 112.145767,219.522797 
	C111.678871,217.129761 110.072876,214.885406 109.927658,212.518433 
	C109.623917,207.567551 109.968895,202.577484 110.019417,197.603210 
	C110.024109,197.142059 109.828423,196.678864 109.648903,195.870361 
	C108.207001,195.982407 106.829765,196.089401 104.987343,196.232559 
	C104.987343,203.569290 104.924423,210.524750 105.013100,217.478256 
	C105.059486,221.116165 106.996071,223.321457 111.446251,223.891418 
z"/>
<path fill="#293539" opacity="1.000000" stroke="none" 
	d="
M277.000000,2.500003 
	C185.312408,2.994756 93.624809,2.989512 1.468609,2.992134 
	C1.166667,2.333333 1.229735,1.149261 1.518317,1.091479 
	C2.640014,0.866886 3.833333,1.000000 5.000000,1.000000 
	C94.333336,1.000000 183.666672,0.995655 272.999969,1.041548 
	C274.333496,1.042233 275.666656,1.666672 277.000000,2.500003 
z"/>
<path fill="#21292C" opacity="1.000000" stroke="none" 
	d="
M277.000000,235.531342 
	C276.668030,234.593399 276.047760,233.187164 276.046021,231.780167 
	C275.993896,189.370621 275.999756,146.960999 276.021118,104.551407 
	C276.021606,103.577477 276.305237,102.603691 276.728394,101.314926 
	C277.000000,145.687561 277.000000,190.375122 277.000000,235.531342 
z"/>
<path fill="#F7F7F7" opacity="1.000000" stroke="none" 
	d="
M95.204361,158.133270 
	C88.034317,159.329971 82.600464,157.139999 78.977188,151.294388 
	C75.928596,146.375946 76.616310,139.236099 80.180847,134.839554 
	C83.982872,130.150085 90.724907,128.286148 96.934265,130.207794 
	C102.468315,131.920456 106.461250,137.063339 106.369217,143.498611 
	C106.323906,146.666840 107.243454,148.286606 110.007645,149.591461 
	C113.734940,151.350983 117.258217,153.542725 119.892792,155.006546 
	C123.193108,150.481445 125.668488,145.520294 129.570145,142.272629 
	C132.304764,139.996353 136.982101,139.252319 140.797974,139.235764 
	C150.070129,139.195496 155.473083,144.475754 158.426025,155.477112 
	C162.831161,153.057983 167.271744,150.836319 171.433121,148.177658 
	C172.440521,147.534042 172.883286,145.470566 172.974808,144.021439 
	C173.391312,137.427200 176.633240,132.446655 182.132965,130.393448 
	C187.759399,128.292923 194.645981,129.966919 198.601898,134.396744 
	C202.451065,138.707031 203.252884,145.232025 200.612106,150.755402 
	C197.347458,157.583679 188.997665,160.354767 181.318695,156.654877 
	C178.504044,155.298737 176.548203,155.536880 174.046844,157.018494 
	C169.472122,159.728119 164.588257,161.923264 160.063431,164.707001 
	C157.231888,166.448990 154.427979,168.541367 152.295181,171.056198 
	C145.968399,178.516312 131.985977,177.885101 126.529999,169.745270 
	C125.582283,168.331345 124.134308,167.084961 122.647331,166.231995 
	C118.322029,163.750900 113.628334,161.852371 109.512489,159.081604 
	C104.883751,155.965591 100.538506,154.477249 95.204361,158.133270 
M142.661545,151.608307 
	C138.211823,150.010681 135.132965,151.765350 133.510254,155.858215 
	C132.066742,159.499054 133.642792,162.373489 136.982895,164.119858 
	C140.501633,165.959625 143.755417,164.759079 145.714264,161.792206 
	C148.174423,158.065994 147.180771,154.518311 142.661545,151.608307 
M181.094254,144.316864 
	C181.751266,145.620239 182.115860,147.683899 183.124924,148.072037 
	C185.370499,148.935806 188.339066,149.879318 190.251328,149.044876 
	C191.849228,148.347641 193.516144,144.859604 193.061417,143.170364 
	C192.520157,141.159698 189.979019,138.803421 187.887985,138.288834 
	C184.208405,137.383301 181.600296,139.515778 181.094254,144.316864 
M86.927895,147.330460 
	C91.380676,150.654373 95.384697,150.739304 96.849152,147.007767 
	C97.670242,144.915558 97.630447,141.297348 96.330215,139.895157 
	C95.031525,138.494629 91.384499,138.147095 89.289497,138.864319 
	C85.861000,140.038025 85.169189,143.236023 86.927895,147.330460 
z"/>
<path fill="#F7F7F7" opacity="1.000000" stroke="none" 
	d="
M180.714340,47.760983 
	C187.297729,44.585323 193.077301,45.229649 198.113144,50.001644 
	C202.400070,54.063965 203.339691,60.355946 200.841049,66.160484 
	C198.096649,72.535881 191.615265,75.522575 183.735580,74.042862 
	C177.976852,72.961433 172.911453,67.370163 173.174210,61.199146 
	C173.324249,57.675095 171.980789,56.199814 169.249420,54.812393 
	C165.707672,53.013321 162.326462,50.898228 158.198990,48.530773 
	C156.885651,59.875450 150.202744,65.532578 139.607513,65.604950 
	C129.509369,65.673950 123.280487,59.939945 121.098831,49.700562 
	C116.589752,51.989689 112.382385,53.909889 108.441154,56.273815 
	C107.418747,56.887047 106.809242,58.864151 106.728737,60.256355 
	C106.363968,66.564461 103.427811,71.196289 97.595757,73.342438 
	C91.823051,75.466751 85.989777,75.099014 81.318184,70.467575 
	C76.856163,66.043907 76.017891,60.634808 78.123154,54.800377 
	C81.011284,46.796333 90.512703,43.351715 98.395721,47.770157 
	C100.973198,49.214844 102.691727,49.119602 105.118538,47.731163 
	C111.167953,44.270142 117.415062,41.156124 123.538017,37.820595 
	C124.486763,37.303761 125.335602,36.457497 126.000168,35.587521 
	C132.942566,26.499374 145.047943,26.331501 152.788284,34.731571 
	C155.361786,37.524410 159.280365,39.112816 162.665726,41.113583 
	C166.816681,43.566814 170.961731,46.067917 175.307266,48.131531 
	C176.659058,48.773468 178.654175,48.060684 180.714340,47.760983 
M96.793465,63.769699 
	C98.500076,60.978512 98.752602,58.327415 95.645340,55.339214 
	C92.623154,53.173096 89.285866,53.053425 87.590370,56.347153 
	C86.449883,58.562706 86.191902,62.361477 87.379242,64.357132 
	C88.823761,66.785072 92.236542,67.584511 95.574509,64.952774 
	C95.776146,64.692436 95.977776,64.432098 96.793465,63.769699 
M143.324280,53.213058 
	C147.906448,48.821663 147.867142,42.878880 142.853821,41.333447 
	C140.484451,40.603043 136.511780,41.177834 134.960480,42.791100 
	C133.426056,44.386833 133.071457,48.378551 133.907211,50.705994 
	C135.272614,54.508408 138.918076,55.018501 143.324280,53.213058 
M189.839294,65.838333 
	C191.011215,63.513821 193.018707,61.204014 193.059982,58.859592 
	C193.087296,57.308094 190.487442,54.754383 188.710068,54.394119 
	C186.908508,54.028950 184.073578,55.304024 182.807419,56.803307 
	C181.711456,58.101059 181.248444,61.592091 182.159348,62.564434 
	C183.816422,64.333275 186.700195,64.952942 189.839294,65.838333 
z"/>
<path fill="#EB5C4D" opacity="1.000000" stroke="none" 
	d="
M153.342255,80.833603 
	C153.804794,81.086105 154.267349,81.338615 154.904343,82.154449 
	C156.042526,83.475601 157.006256,84.233437 157.969986,84.991264 
	C158.246201,85.189270 158.522415,85.387276 158.898499,86.165512 
	C159.658813,87.489609 160.319260,88.233475 160.979721,88.977341 
	C160.979721,88.977341 161.212387,89.168167 161.181824,89.678764 
	C161.757095,91.120193 162.362930,92.051018 162.968750,92.981850 
	C163.194778,93.237411 163.329269,93.534424 163.252563,94.591248 
	C163.086624,97.158478 163.040344,99.007362 162.850418,101.164429 
	C157.812241,107.994507 152.292694,113.840775 144.587158,117.824860 
	C138.113861,119.255371 132.094666,120.675903 125.895477,121.789963 
	C124.465782,120.996262 123.216072,120.509033 121.966362,120.021805 
	C121.966362,120.021812 122.000549,119.999466 121.984360,119.591919 
	C121.790054,118.382538 121.418640,117.569534 121.464203,116.780609 
	C121.850044,110.098946 117.739822,102.586899 125.144180,97.030525 
	C125.271896,96.904312 125.629768,96.873566 125.926056,96.766418 
	C126.440285,96.312004 126.658226,95.964745 126.902237,95.336761 
	C127.087715,94.718025 127.247124,94.380020 127.681335,93.952271 
	C128.293213,93.220116 128.630280,92.577721 128.982681,91.964142 
	C128.998001,91.992950 128.937531,91.968369 129.253967,91.938530 
	C129.917633,91.454781 130.264862,91.000870 130.642426,90.547424 
	C130.672729,90.547897 130.655457,90.605995 130.934692,90.600311 
	C131.433838,90.311073 131.653748,90.027527 131.879562,89.791016 
	C131.885452,89.838051 131.798691,89.799858 132.128387,89.824890 
	C132.912659,89.445854 133.367249,89.041779 133.852325,88.681442 
	C133.882797,88.725189 133.776611,88.715508 134.201340,88.799973 
	C138.083115,87.942322 141.540176,87.000191 145.221786,85.775139 
	C145.668610,84.332741 145.890884,83.173264 146.296936,81.890198 
	C146.700424,81.561516 146.863144,81.318298 147.007416,80.740509 
	C147.364655,79.962219 147.683350,79.480354 148.325150,79.143730 
	C150.212921,79.803848 151.777588,80.318726 153.342255,80.833603 
z"/>
<path fill="#F7F8F9" opacity="1.000000" stroke="none" 
	d="
M195.457626,84.182274 
	C203.638779,85.953209 208.636414,90.610260 209.975601,98.471100 
	C211.265610,106.043320 209.293320,112.897896 202.689423,117.302368 
	C196.085464,121.706894 188.927475,121.668022 181.986099,117.651917 
	C175.743027,114.039841 172.896790,105.938538 174.769760,97.500336 
	C176.461380,89.879242 182.271393,84.734573 190.066162,84.067039 
	C191.709717,83.926285 193.379852,84.095497 195.457626,84.182274 
M188.104980,97.350418 
	C185.219177,99.895416 184.061340,103.225594 186.799515,106.020157 
	C188.398468,107.652054 191.861298,108.658348 194.107361,108.177902 
	C197.593430,107.432213 199.569412,104.412422 198.358978,100.532433 
	C197.057465,96.360519 193.674438,95.185989 188.104980,97.350418 
z"/>
<path fill="#F7F8F8" opacity="1.000000" stroke="none" 
	d="
M103.632736,95.155426 
	C103.708176,95.574272 103.783615,95.993111 103.915321,97.041138 
	C104.185211,98.501221 104.398849,99.332123 104.612480,100.163025 
	C104.927368,110.857597 100.550941,117.805351 92.243271,119.799622 
	C83.419724,121.917732 74.785538,118.277611 70.957954,110.825890 
	C66.469078,102.086708 69.103371,91.531128 76.990349,86.654236 
	C85.589684,81.336861 95.735077,83.712715 102.619995,93.101562 
	C103.125229,94.122345 103.378975,94.638885 103.632736,95.155426 
M93.194954,104.114525 
	C93.256996,98.974098 91.289871,96.202744 87.283958,96.025696 
	C83.555786,95.860924 80.761436,97.852669 80.787674,101.381325 
	C80.804764,103.678993 82.478378,106.804710 84.393517,108.066383 
	C87.966064,110.419952 90.972252,108.346375 93.194954,104.114525 
z"/>
<path fill="#CE6357" opacity="1.000000" stroke="none" 
	d="
M200.032486,224.211746 
	C199.715897,223.959534 199.399307,223.707321 198.980728,222.754883 
	C198.895477,221.061600 198.780472,220.045288 198.950989,219.079361 
	C199.852142,213.974274 197.740494,212.483871 192.713669,212.820801 
	C185.905930,213.277100 185.893936,212.941803 185.802429,219.914856 
	C185.785110,221.235458 185.647690,222.554489 185.565689,223.874237 
	C182.891144,224.314316 181.115738,223.982285 181.191132,220.478531 
	C181.341110,213.506729 181.034988,206.525101 181.187927,199.553452 
	C181.214951,198.320908 182.555710,197.117157 183.289795,195.900101 
	C184.169754,197.140442 185.597443,198.293518 185.811996,199.639908 
	C186.218643,202.191879 185.929657,204.854706 185.929657,207.796387 
	C190.383286,207.796387 194.278488,207.796387 198.882996,207.796387 
	C198.882996,204.942505 198.942047,202.183380 198.866943,199.427887 
	C198.786316,196.469315 199.965775,195.403198 203.024567,197.282013 
	C203.478470,202.513184 203.725662,207.002396 203.951416,211.658936 
	C203.915512,212.052078 203.929382,212.276138 203.676025,212.826187 
	C203.331238,216.424637 203.281998,219.695312 203.232742,222.966003 
	C203.232742,222.966003 203.026489,223.352600 202.618729,223.611908 
	C201.484802,223.984711 200.758652,224.098221 200.032486,224.211746 
z"/>
<path fill="#E6E8EA" opacity="1.000000" stroke="none" 
	d="
M35.438286,219.651321 
	C35.440456,211.736877 35.440456,204.283325 35.440456,196.392029 
	C42.031891,196.392029 48.233013,196.392029 54.669319,196.392029 
	C54.669319,197.773712 54.669319,199.153381 54.669319,200.901154 
	C50.131405,200.901154 45.867466,200.901154 41.252296,200.901154 
	C41.155434,203.001175 41.074791,204.749588 40.964893,207.132187 
	C44.554756,207.132187 47.927891,207.132187 52.067173,207.132187 
	C50.744026,215.451370 44.087887,209.522919 40.915878,213.395523 
	C40.915878,215.956665 40.915878,219.709030 40.915878,223.581268 
	C37.306709,224.655609 34.990509,224.490082 35.438286,219.651321 
z"/>
<path fill="#DC6D5B" opacity="1.000000" stroke="none" 
	d="
M241.728394,222.914154 
	C241.488525,222.908463 241.274536,222.980087 240.563019,223.356445 
	C235.779663,223.345413 231.519730,223.106995 226.935028,222.850403 
	C226.935028,218.010666 226.935028,213.571365 226.981247,208.820496 
	C226.881088,207.710236 226.734711,206.911560 226.549194,205.733398 
	C226.557358,204.847519 226.604691,204.341141 226.781143,203.498993 
	C226.944733,201.134827 226.979218,199.106400 227.013702,197.077972 
	C228.311905,197.077972 229.610107,197.077972 231.207123,197.077972 
	C231.374252,200.039551 231.528473,202.772217 231.682693,205.504898 
	C231.944656,205.108063 232.206604,204.711227 232.468567,204.314392 
	C236.098373,205.755310 240.385300,206.431793 243.184982,208.838409 
	C246.394836,211.597626 245.946350,216.028229 243.702240,220.415390 
	C243.213196,221.261612 243.038361,221.604477 242.863510,221.947357 
	C242.863510,221.947357 242.951019,221.950882 242.679352,221.995209 
	C242.181259,222.331085 241.954834,222.622620 241.728394,222.914154 
M237.144684,219.602814 
	C238.373825,217.546204 240.232773,215.580124 240.547287,213.392029 
	C240.689270,212.404404 237.918716,210.318954 236.182358,209.887466 
	C232.961899,209.087143 230.502045,211.324478 230.286026,214.219070 
	C230.009506,217.923965 232.890442,219.483246 237.144684,219.602814 
z"/>
<path fill="#E3E7E8" opacity="1.000000" stroke="none" 
	d="
M84.890938,212.413544 
	C85.600998,211.973038 86.652603,211.701553 86.967438,211.065445 
	C89.641594,205.662354 94.869995,203.638870 99.670593,206.000183 
	C103.537979,207.902451 103.643425,211.363235 102.784645,214.468750 
	C102.448250,215.685211 99.285469,216.352661 97.303719,216.809296 
	C95.665001,217.186874 93.870064,216.886459 91.913948,216.886459 
	C94.281006,222.508316 101.662262,215.023544 103.158676,221.883743 
	C96.441086,226.175476 89.721809,223.962860 87.171516,216.794754 
	C86.745506,215.597336 86.289619,214.410568 85.376991,213.261017 
	C84.897865,213.006638 84.892693,212.710114 84.890938,212.413544 
z"/>
<path fill="#E16050" opacity="1.000000" stroke="none" 
	d="
M125.016472,97.156738 
	C117.739822,102.586899 121.850044,110.098946 121.464203,116.780609 
	C121.418640,117.569534 121.790054,118.382538 121.973312,119.609100 
	C111.489037,109.995346 111.955109,93.606773 123.599991,81.988937 
	C124.420227,81.454742 124.693481,81.181351 124.966736,80.907959 
	C124.966728,80.907951 124.976379,80.984550 125.260223,80.948967 
	C126.001091,80.534645 126.458130,80.155907 126.915161,79.777168 
	C126.915161,79.777168 126.911850,79.869621 127.191772,79.871483 
	C127.954926,79.507996 128.438141,79.142647 128.921371,78.777298 
	C128.921371,78.777306 128.919632,78.869431 129.310242,78.895416 
	C135.598907,78.559883 141.496979,78.198357 147.395035,77.836838 
	C147.395035,77.836838 147.743256,77.786964 147.875000,78.139374 
	C148.005173,78.660690 148.003616,78.829590 148.002045,78.998497 
	C147.683350,79.480354 147.364655,79.962219 146.681366,80.791939 
	C146.105042,81.200897 145.893311,81.262001 145.715973,81.286407 
	C145.750351,81.249710 145.782104,81.345154 145.738251,81.093582 
	C145.145874,80.795761 144.597366,80.749527 143.629089,80.726120 
	C141.821228,80.626251 140.433121,80.503555 138.896454,80.116913 
	C135.507904,79.957039 131.894226,78.975311 129.852997,82.988068 
	C129.744644,83.099037 129.434525,83.105453 129.141541,83.179001 
	C128.570724,83.532043 128.292877,83.811539 127.829918,84.338013 
	C126.225426,85.758385 124.806046,86.931786 123.104950,88.203857 
	C122.615662,88.629463 122.408096,88.956398 122.219284,89.210083 
	C122.238022,89.136841 122.371155,89.208549 122.062088,89.320572 
	C121.581200,90.028389 121.409378,90.624191 121.218376,91.172737 
	C121.199196,91.125481 121.301201,91.125542 120.987610,91.272018 
	C119.760376,92.992935 117.473175,94.630875 121.111313,96.158905 
	C122.563232,96.593880 123.789856,96.875305 125.016472,97.156738 
z"/>
<path fill="#E1E5E6" opacity="1.000000" stroke="none" 
	d="
M124.233170,210.767761 
	C121.406563,209.767960 118.579948,208.768158 114.715355,207.401215 
	C123.210114,203.334625 127.926788,205.463043 129.135864,212.829544 
	C129.714142,216.352722 129.725494,219.968964 129.970795,223.239059 
	C125.803146,223.450104 122.064316,224.233429 118.601860,223.571381 
	C116.792274,223.225372 114.244698,220.340668 114.241226,218.598145 
	C114.237076,216.510773 116.291389,214.097214 118.045273,212.456879 
	C119.001091,211.562943 121.180336,211.977112 123.400330,211.850983 
	C124.242561,211.822159 124.492256,211.743683 124.741959,211.665207 
	C124.572357,211.366058 124.402763,211.066910 124.233170,210.767761 
z"/>
<path fill="#E3E6E7" opacity="1.000000" stroke="none" 
	d="
M165.196716,207.080429 
	C168.776962,204.764175 172.809708,203.425400 176.201111,206.501938 
	C177.930603,208.070862 178.403366,211.329559 178.701004,213.910172 
	C178.759064,214.413605 175.442368,215.570557 173.584839,215.953278 
	C171.865005,216.307632 170.014709,216.028793 167.655060,216.028793 
	C169.262833,219.505844 171.268524,220.240936 174.459793,219.566666 
	C175.894669,219.263519 177.626297,220.364761 179.223267,220.828766 
	C177.818954,221.879150 176.506912,223.611374 174.988266,223.816864 
	C172.820175,224.110275 170.500763,223.285431 167.714478,222.570801 
	C161.088333,217.205353 160.681274,214.106064 165.196716,207.080429 
z"/>
<path fill="#E9ECED" opacity="1.000000" stroke="none" 
	d="
M84.966766,212.021515 
	C84.892693,212.710114 84.897865,213.006638 84.898010,213.444733 
	C83.570580,214.658157 82.395821,216.267120 80.897087,216.669540 
	C78.901840,217.205261 76.654411,216.801788 74.383057,216.801788 
	C76.352470,222.896042 83.914581,215.289276 85.519852,222.147263 
	C81.836174,224.687042 78.007492,224.842484 74.046188,222.694901 
	C69.054565,219.988724 67.984589,215.586197 68.429947,210.181671 
	C67.989983,209.978867 67.955406,210.042160 68.321274,210.245377 
	C68.812233,209.952423 68.937325,209.456238 69.032982,208.977600 
	C69.003548,208.995117 68.989456,209.062180 68.989456,209.062180 
	C76.207748,202.820648 82.615540,203.845428 84.966766,212.021515 
M75.267090,209.450027 
	C74.583969,210.234497 73.900841,211.018967 72.792206,212.292084 
	C76.015541,212.292084 78.457619,212.292084 80.899689,212.292084 
	C81.027298,211.802460 81.154907,211.312836 81.282509,210.823212 
	C79.511749,210.269913 77.740990,209.716614 75.267090,209.450027 
z"/>
<path fill="#C96053" opacity="1.000000" stroke="none" 
	d="
M203.971588,212.498428 
	C203.929382,212.276138 203.915512,212.052078 204.389038,211.848969 
	C205.328506,209.985229 205.808929,208.098755 206.289352,206.212296 
	C209.532578,204.730286 211.010696,205.805389 210.902435,209.331818 
	C210.841217,211.325958 210.403702,213.507126 211.051712,215.266693 
	C211.658188,216.913361 213.473083,218.114975 214.756165,219.512482 
	C216.120560,218.099442 218.024902,216.901993 218.699097,215.213394 
	C219.387848,213.488403 218.937683,211.278809 218.863007,209.285980 
	C218.754410,206.387985 219.886322,204.828445 223.397293,205.626190 
	C223.756729,212.013550 223.686569,217.920959 223.616409,223.828369 
	C223.261871,223.838470 222.907349,223.848557 221.960648,223.862061 
	C217.608444,223.779221 213.848389,223.692978 210.088348,223.606750 
	C209.157791,222.559601 208.227234,221.512451 207.056412,219.950394 
	C206.550415,219.174927 206.284668,218.914383 206.018936,218.653824 
	C206.018936,218.653824 206.165176,218.349274 206.107727,217.847168 
	C205.357391,215.729523 204.664490,214.113968 203.971588,212.498428 
z"/>
<path fill="#A33132" opacity="1.000000" stroke="none" 
	d="
M145.041229,117.814888 
	C152.292694,113.840775 157.812241,107.994507 163.126495,101.167015 
	C163.730316,100.863052 163.914429,100.864700 164.098526,100.866341 
	C166.458130,110.883438 158.946640,122.466469 147.158417,125.785416 
	C141.759399,123.792366 145.586929,120.377464 145.041229,117.814888 
z"/>
<path fill="#DCDFE1" opacity="1.000000" stroke="none" 
	d="
M135.694916,223.887634 
	C134.253769,223.887634 132.812637,223.887634 130.876358,223.887634 
	C130.876358,218.261765 130.817108,212.999939 130.940353,207.742371 
	C130.958801,206.954956 131.652145,205.779022 132.339340,205.475296 
	C138.059036,202.947357 144.746429,205.885742 147.651825,212.336700 
	C148.030609,213.827850 148.027451,214.877335 148.024292,215.926819 
	C147.432404,218.266968 146.840515,220.607132 146.054596,223.714432 
	C145.276062,223.671509 143.977875,223.599930 142.509567,222.812286 
	C142.344589,219.305145 142.769577,216.422485 142.188568,213.759323 
	C141.868851,212.293945 139.856873,211.197784 138.607864,209.935150 
	C137.582031,211.305923 135.859818,212.588684 135.673157,214.065506 
	C135.265991,217.287170 135.640045,220.607574 135.694916,223.887634 
z"/>
<path fill="#E9EBEC" opacity="1.000000" stroke="none" 
	d="
M148.129105,216.262421 
	C148.027451,214.877335 148.030609,213.827850 148.015381,212.385193 
	C151.092072,205.445328 154.715576,203.976898 162.084045,207.041870 
	C160.959473,208.522339 159.790878,209.853836 158.562119,209.911880 
	C155.265961,210.067657 152.165131,210.752502 152.204849,214.492676 
	C152.243484,218.131729 155.414536,219.183685 158.617767,219.089005 
	C161.460556,219.004990 162.981049,220.003067 162.905075,222.963562 
	C155.937195,225.310791 152.042847,223.621109 148.129105,216.262421 
z"/>
<path fill="#E5E8E9" opacity="1.000000" stroke="none" 
	d="
M111.047691,223.901611 
	C106.996071,223.321457 105.059486,221.116165 105.013100,217.478256 
	C104.924423,210.524750 104.987343,203.569290 104.987343,196.232559 
	C106.829765,196.089401 108.207001,195.982407 109.648903,195.870361 
	C109.828423,196.678864 110.024109,197.142059 110.019417,197.603210 
	C109.968895,202.577484 109.623917,207.567551 109.927658,212.518433 
	C110.072876,214.885406 111.678871,217.129761 112.145767,219.522797 
	C112.410904,220.881775 111.711357,222.428986 111.047691,223.901611 
z"/>
<path fill="#9B2F2F" opacity="1.000000" stroke="none" 
	d="
M144.587158,117.824860 
	C145.586929,120.377464 141.759399,123.792366 146.785248,125.790764 
	C139.624420,129.540207 132.923508,127.134628 126.184448,123.070557 
	C126.011620,122.545204 126.075462,122.096443 126.075462,122.096436 
	C132.094666,120.675903 138.113861,119.255371 144.587158,117.824860 
z"/>
<path fill="#E6EBEC" opacity="1.000000" stroke="none" 
	d="
M68.022491,209.963257 
	C61.028980,210.751526 60.762131,211.203323 58.798130,224.578293 
	C57.885887,223.328964 56.268120,222.123810 56.186653,220.822479 
	C55.876236,215.864029 56.061394,210.874527 56.061394,206.072067 
	C60.183395,205.783585 64.040138,205.513672 68.145981,205.226334 
	C68.205635,206.288315 68.268410,207.405930 68.660324,208.792862 
	C68.989456,209.062180 69.003548,208.995117 68.665894,208.803223 
	C68.203957,209.088287 68.079681,209.565216 67.955406,210.042160 
	C67.955406,210.042160 67.989983,209.978867 68.022491,209.963257 
z"/>
<path fill="#1C292D" opacity="1.000000" stroke="none" 
	d="
M163.374054,222.973480 
	C162.981049,220.003067 161.460556,219.004990 158.617767,219.089005 
	C155.414536,219.183685 152.243484,218.131729 152.204849,214.492676 
	C152.165131,210.752502 155.265961,210.067657 158.562119,209.911880 
	C159.790878,209.853836 160.959473,208.522339 162.285828,207.375778 
	C163.111588,206.998489 163.807022,207.016922 164.849594,207.057892 
	C160.681274,214.106064 161.088333,217.205353 167.388840,222.499176 
	C166.344162,222.857788 165.093597,222.920609 163.374054,222.973480 
z"/>
<path fill="#301D1E" opacity="1.000000" stroke="none" 
	d="
M224.058914,223.886017 
	C223.686569,217.920959 223.756729,212.013550 223.791748,205.659180 
	C224.326675,202.679718 224.896744,200.147217 225.759979,197.756607 
	C226.252762,199.877243 226.452393,201.856003 226.652008,203.834747 
	C226.604691,204.341141 226.557358,204.847519 226.414581,206.028000 
	C226.524414,207.512085 226.729721,208.322067 226.935028,209.132065 
	C226.935028,213.571365 226.935028,218.010666 226.935028,222.850403 
	C231.519730,223.106995 235.779663,223.345413 240.458450,223.493011 
	C236.971497,228.221390 232.133148,224.042709 227.787003,224.700165 
	C226.753601,224.856491 225.599823,224.217056 224.058914,223.886017 
z"/>
<path fill="#152124" opacity="1.000000" stroke="none" 
	d="
M136.105942,223.906769 
	C135.640045,220.607574 135.265991,217.287170 135.673157,214.065506 
	C135.859818,212.588684 137.582031,211.305923 138.607864,209.935150 
	C139.856873,211.197784 141.868851,212.293945 142.188568,213.759323 
	C142.769577,216.422485 142.344589,219.305145 142.243622,222.548248 
	C140.270874,223.308838 138.393921,223.617386 136.105942,223.906769 
z"/>
<path fill="#301D1E" opacity="1.000000" stroke="none" 
	d="
M185.927002,223.660645 
	C185.647690,222.554489 185.785110,221.235458 185.802429,219.914856 
	C185.893936,212.941803 185.905930,213.277100 192.713669,212.820801 
	C197.740494,212.483871 199.852142,213.974274 198.950989,219.079361 
	C198.780472,220.045288 198.895477,221.061600 198.808502,222.502396 
	C198.486420,221.857285 197.926697,220.732162 198.037308,219.677338 
	C198.460052,215.645721 197.409058,213.773376 192.743759,213.838455 
	C188.286179,213.900635 186.329575,215.061874 186.939102,219.680450 
	C187.098251,220.886353 186.525116,222.188889 185.927002,223.660645 
z"/>
<path fill="#CC695C" opacity="1.000000" stroke="none" 
	d="
M147.078018,77.591522 
	C141.496979,78.198357 135.598907,78.559883 129.266174,78.881989 
	C134.572388,75.520859 140.591248,75.529449 147.078018,77.591522 
z"/>
<path fill="#301D1E" opacity="1.000000" stroke="none" 
	d="
M205.945236,206.003723 
	C205.808929,208.098755 205.328506,209.985229 204.410461,211.681656 
	C203.725662,207.002396 203.478470,202.513184 203.313019,197.578156 
	C204.130203,200.019943 204.865662,202.907547 205.945236,206.003723 
z"/>
<path fill="#301D1E" opacity="1.000000" stroke="none" 
	d="
M203.676025,212.826187 
	C204.664490,214.113968 205.357391,215.729523 206.004211,217.713684 
	C205.201736,219.503036 204.445343,220.923737 203.460846,222.655212 
	C203.281998,219.695312 203.331238,216.424637 203.676025,212.826187 
z"/>
<path fill="#301D1E" opacity="1.000000" stroke="none" 
	d="
M210.316528,223.960724 
	C213.848389,223.692978 217.608444,223.779221 221.705643,223.941772 
	C218.210098,224.116974 214.377396,224.215851 210.316528,223.960724 
z"/>
<path fill="#CC695C" opacity="1.000000" stroke="none" 
	d="
M148.325150,79.143730 
	C148.003616,78.829590 148.005173,78.660690 148.020050,78.238846 
	C149.680862,78.742783 151.328369,79.499672 153.159058,80.545082 
	C151.777588,80.318726 150.212921,79.803848 148.325150,79.143730 
z"/>
<path fill="#B8655A" opacity="1.000000" stroke="none" 
	d="
M226.781128,203.498993 
	C226.452393,201.856003 226.252762,199.877243 226.020706,197.467773 
	C226.270676,196.951401 226.553070,196.865723 226.924591,196.929016 
	C226.979218,199.106400 226.944733,201.134827 226.781128,203.498993 
z"/>
<path fill="#E16050" opacity="1.000000" stroke="none" 
	d="
M125.895477,121.789963 
	C126.075462,122.096443 126.011620,122.545204 125.997505,122.771385 
	C124.731598,122.203560 123.479805,121.409554 122.097183,120.318680 
	C123.216072,120.509033 124.465782,120.996262 125.895477,121.789963 
z"/>
<path fill="#CC695C" opacity="1.000000" stroke="none" 
	d="
M157.898819,84.683586 
	C157.006256,84.233437 156.042526,83.475601 155.036560,82.388397 
	C155.938782,82.831314 156.883209,83.603615 157.898819,84.683586 
z"/>
<path fill="#0F1D20" opacity="1.000000" stroke="none" 
	d="
M104.889679,99.976830 
	C104.398849,99.332123 104.185211,98.501221 104.036011,97.336823 
	C104.455925,97.932426 104.811401,98.861526 104.889679,99.976830 
z"/>
<path fill="#CC695C" opacity="1.000000" stroke="none" 
	d="
M164.183441,100.485786 
	C163.914429,100.864700 163.730316,100.863052 163.270142,100.858826 
	C163.040344,99.007362 163.086624,97.158478 163.214783,94.835876 
	C163.296661,94.362152 163.710480,94.623764 163.847855,95.128990 
	C164.050415,95.819878 164.115601,96.005531 164.180786,96.191193 
	C164.209976,97.495872 164.239166,98.800552 164.183441,100.485786 
z"/>
<path fill="#CC695C" opacity="1.000000" stroke="none" 
	d="
M160.948608,88.668900 
	C160.319260,88.233475 159.658813,87.489609 158.995605,86.405884 
	C159.634415,86.830841 160.275955,87.595650 160.948608,88.668900 
z"/>
<path fill="#CC695C" opacity="1.000000" stroke="none" 
	d="
M162.981934,92.641251 
	C162.362930,92.051018 161.757095,91.120193 161.192108,89.828873 
	C161.820328,90.412468 162.407730,91.356552 162.981934,92.641251 
z"/>
<path fill="#0F1D20" opacity="1.000000" stroke="none" 
	d="
M103.878868,94.985352 
	C103.378975,94.638885 103.125229,94.122345 102.884460,93.300674 
	C103.306625,93.602127 103.715813,94.208702 103.878868,94.985352 
z"/>
<path fill="#301D1E" opacity="1.000000" stroke="none" 
	d="
M200.257004,224.411377 
	C200.758652,224.098221 201.484802,223.984711 202.576874,223.826965 
	C202.122375,224.058823 201.301941,224.334915 200.257004,224.411377 
z"/>
<path fill="#CC695C" opacity="1.000000" stroke="none" 
	d="
M128.607117,78.783691 
	C128.438141,79.142647 127.954926,79.507996 127.147858,79.856949 
	C127.313629,79.490395 127.803238,79.140236 128.607117,78.783691 
z"/>
<path fill="#CC695C" opacity="1.000000" stroke="none" 
	d="
M126.612282,79.813019 
	C126.458130,80.155907 126.001091,80.534645 125.229614,80.925446 
	C125.379921,80.574623 125.844658,80.211739 126.612282,79.813019 
z"/>
<path fill="#A33132" opacity="1.000000" stroke="none" 
	d="
M164.287598,96.045822 
	C164.115601,96.005531 164.050415,95.819878 163.972961,95.339386 
	C164.105270,95.329857 164.249832,95.615158 164.287598,96.045822 
z"/>
<path fill="#CC695C" opacity="1.000000" stroke="none" 
	d="
M124.680176,80.971756 
	C124.693481,81.181351 124.420227,81.454742 123.855095,81.786743 
	C123.840019,81.575417 124.116814,81.305489 124.680176,80.971756 
z"/>
<path fill="#301D1E" opacity="1.000000" stroke="none" 
	d="
M206.093231,218.923340 
	C206.284668,218.914383 206.550415,219.174927 206.858749,219.721619 
	C206.656738,219.736115 206.412125,219.464478 206.093231,218.923340 
z"/>
<path fill="#301D1E" opacity="1.000000" stroke="none" 
	d="
M243.123108,221.801605 
	C243.038361,221.604477 243.213196,221.261612 243.635635,220.758926 
	C243.716385,220.951370 243.549545,221.303619 243.123108,221.801605 
z"/>
<path fill="#301D1E" opacity="1.000000" stroke="none" 
	d="
M241.996979,222.826874 
	C241.954834,222.622620 242.181259,222.331085 242.675354,221.951599 
	C242.717178,222.155640 242.491364,222.447617 241.996979,222.826874 
z"/>
<path fill="#16232A" opacity="1.000000" stroke="none" 
	d="
M143.010834,151.786896 
	C147.180771,154.518311 148.174423,158.065994 145.714264,161.792206 
	C143.755417,164.759079 140.501633,165.959625 136.982895,164.119858 
	C133.642792,162.373489 132.066742,159.499054 133.510254,155.858215 
	C135.132965,151.765350 138.211823,150.010681 143.010834,151.786896 
z"/>
<path fill="#DD5E55" opacity="1.000000" stroke="none" 
	d="
M181.069489,143.926712 
	C181.600296,139.515778 184.208405,137.383301 187.887985,138.288834 
	C189.979019,138.803421 192.520157,141.159698 193.061417,143.170364 
	C193.516144,144.859604 191.849228,148.347641 190.251328,149.044876 
	C188.339066,149.879318 185.370499,148.935806 183.124924,148.072037 
	C182.115860,147.683899 181.751266,145.620239 181.069489,143.926712 
z"/>
<path fill="#DB5D53" opacity="1.000000" stroke="none" 
	d="
M86.715027,146.996552 
	C85.169189,143.236023 85.861000,140.038025 89.289497,138.864319 
	C91.384499,138.147095 95.031525,138.494629 96.330215,139.895157 
	C97.630447,141.297348 97.670242,144.915558 96.849152,147.007767 
	C95.384697,150.739304 91.380676,150.654373 86.715027,146.996552 
z"/>
<path fill="#192429" opacity="1.000000" stroke="none" 
	d="
M142.985779,53.431320 
	C138.918076,55.018501 135.272614,54.508408 133.907211,50.705994 
	C133.071457,48.378551 133.426056,44.386833 134.960480,42.791100 
	C136.511780,41.177834 140.484451,40.603043 142.853821,41.333447 
	C147.867142,42.878880 147.906448,48.821663 142.985779,53.431320 
z"/>
<path fill="#E06657" opacity="1.000000" stroke="none" 
	d="
M189.455688,65.945236 
	C186.700195,64.952942 183.816422,64.333275 182.159348,62.564434 
	C181.248444,61.592091 181.711456,58.101059 182.807419,56.803307 
	C184.073578,55.304024 186.908508,54.028950 188.710068,54.394119 
	C190.487442,54.754383 193.087296,57.308094 193.059982,58.859592 
	C193.018707,61.204014 191.011215,63.513821 189.455688,65.945236 
z"/>
<path fill="#D1685C" opacity="1.000000" stroke="none" 
	d="
M95.091637,65.099319 
	C92.236542,67.584511 88.823761,66.785072 87.379242,64.357132 
	C86.191902,62.361477 86.449883,58.562706 87.590370,56.347153 
	C89.285866,53.053425 92.623154,53.173096 95.785248,55.707729 
	C95.925148,56.076244 95.809341,56.190884 95.416687,56.132530 
	C91.142502,55.627155 87.316177,56.542744 87.310181,60.874752 
	C87.303810,65.472855 91.576210,64.951729 94.948532,64.920708 
	C94.994400,64.981689 95.091637,65.099319 95.091637,65.099319 
z"/>
<path fill="#D1685C" opacity="1.000000" stroke="none" 
	d="
M95.983185,56.019058 
	C98.752602,58.327415 98.500076,60.978512 96.414108,63.904854 
	C96.034752,64.040009 95.884010,63.915276 95.922668,63.485226 
	C95.910667,60.767078 95.860001,58.478981 95.809341,56.190884 
	C95.809341,56.190884 95.925148,56.076244 95.983185,56.019058 
z"/>
<path fill="#D1685C" opacity="1.000000" stroke="none" 
	d="
M96.107086,64.105881 
	C95.977776,64.432098 95.776146,64.692436 95.333069,65.026047 
	C95.091637,65.099319 94.994400,64.981689 95.090118,64.741806 
	C95.390976,64.273552 95.623703,64.078003 95.884010,63.915276 
	C95.884010,63.915276 96.034752,64.040009 96.107086,64.105881 
z"/>
<path fill="#FBF0ED" opacity="1.000000" stroke="none" 
	d="
M139.045029,80.380859 
	C140.433121,80.503555 141.821228,80.626251 143.898819,80.882256 
	C144.986252,81.125427 145.384171,81.235291 145.782104,81.345154 
	C145.782104,81.345154 145.750351,81.249710 145.772125,81.490822 
	C145.793915,81.731934 146.113144,82.013794 146.113144,82.013794 
	C145.890884,83.173264 145.668610,84.332741 144.807053,85.760132 
	C140.704041,86.923866 137.240326,87.819687 133.776611,88.715500 
	C133.776611,88.715508 133.882797,88.725189 133.541748,88.695297 
	C132.733353,89.043556 132.266022,89.421707 131.798691,89.799866 
	C131.798691,89.799858 131.885452,89.838051 131.606873,89.823029 
	C131.104004,90.074005 130.879730,90.340004 130.655457,90.606003 
	C130.655457,90.605995 130.672729,90.547897 130.360733,90.612869 
	C129.678329,91.108009 129.307938,91.538193 128.937531,91.968369 
	C128.937531,91.968369 128.998001,91.992950 128.718979,92.071320 
	C128.095474,92.780464 127.750999,93.411240 127.406532,94.042015 
	C127.247124,94.380020 127.087715,94.718025 126.635071,95.481705 
	C126.104477,96.229446 125.867119,96.551506 125.629768,96.873566 
	C125.629768,96.873566 125.271896,96.904312 125.144180,97.030518 
	C123.789856,96.875305 122.563232,96.593880 121.103409,95.749237 
	C121.013878,93.832535 121.157532,92.479034 121.301193,91.125542 
	C121.301201,91.125542 121.199196,91.125481 121.469376,91.003723 
	C121.950096,90.324165 122.160629,89.766357 122.371155,89.208549 
	C122.371155,89.208549 122.238022,89.136841 122.499107,89.113495 
	C122.969017,88.761833 123.177849,88.433510 123.386673,88.105186 
	C124.806046,86.931786 126.225426,85.758385 128.120880,84.264465 
	C128.876129,83.664444 129.155319,83.384949 129.434525,83.105453 
	C129.434525,83.105453 129.744644,83.099037 130.230316,82.950020 
	C133.492340,81.994293 136.268692,81.187576 139.045029,80.380859 
z"/>
<path fill="#CC695C" opacity="1.000000" stroke="none" 
	d="
M134.201340,88.799973 
	C137.240326,87.819687 140.704041,86.923866 144.582489,86.043060 
	C141.540176,87.000191 138.083115,87.942322 134.201340,88.799973 
z"/>
<path fill="#CC695C" opacity="1.000000" stroke="none" 
	d="
M127.681328,93.952271 
	C127.750999,93.411240 128.095474,92.780464 128.703659,92.042511 
	C128.630280,92.577721 128.293213,93.220116 127.681328,93.952271 
z"/>
<path fill="#CC695C" opacity="1.000000" stroke="none" 
	d="
M132.128387,89.824890 
	C132.266022,89.421707 132.733353,89.043556 133.511261,88.651550 
	C133.367249,89.041779 132.912659,89.445854 132.128387,89.824890 
z"/>
<path fill="#CC695C" opacity="1.000000" stroke="none" 
	d="
M129.253967,91.938530 
	C129.307938,91.538193 129.678329,91.108009 130.330414,90.612396 
	C130.264862,91.000870 129.917633,91.454781 129.253967,91.938530 
z"/>
<path fill="#CC695C" opacity="1.000000" stroke="none" 
	d="
M125.926056,96.766418 
	C125.867119,96.551506 126.104477,96.229446 126.609001,95.762436 
	C126.658226,95.964745 126.440285,96.312004 125.926056,96.766418 
z"/>
<path fill="#CC695C" opacity="1.000000" stroke="none" 
	d="
M146.296936,81.890198 
	C146.113144,82.013794 145.793915,81.731934 145.737762,81.527527 
	C145.893311,81.262001 146.105042,81.200897 146.642807,81.088371 
	C146.863144,81.318298 146.700424,81.561516 146.296936,81.890198 
z"/>
<path fill="#CC695C" opacity="1.000000" stroke="none" 
	d="
M130.934692,90.600311 
	C130.879730,90.340004 131.104004,90.074005 131.600983,89.775993 
	C131.653748,90.027527 131.433838,90.311073 130.934692,90.600311 
z"/>
<path fill="#18262A" opacity="1.000000" stroke="none" 
	d="
M188.412933,97.118607 
	C193.674438,95.185989 197.057465,96.360519 198.358978,100.532433 
	C199.569412,104.412422 197.593430,107.432213 194.107361,108.177902 
	C191.861298,108.658348 188.398468,107.652054 186.799515,106.020157 
	C184.061340,103.225594 185.219177,99.895416 188.412933,97.118607 
z"/>
<path fill="#19262D" opacity="1.000000" stroke="none" 
	d="
M93.087540,104.509003 
	C90.972252,108.346375 87.966064,110.419952 84.393517,108.066383 
	C82.478378,106.804710 80.804764,103.678993 80.787674,101.381325 
	C80.761436,97.852669 83.555786,95.860924 87.283958,96.025696 
	C91.289871,96.202744 93.256996,98.974098 93.087540,104.509003 
z"/>
<path fill="#241B1B" opacity="1.000000" stroke="none" 
	d="
M236.772629,219.644485 
	C232.890442,219.483246 230.009506,217.923965 230.286026,214.219070 
	C230.502045,211.324478 232.961899,209.087143 236.182358,209.887466 
	C237.918716,210.318954 240.689270,212.404404 240.547287,213.392029 
	C240.232773,215.580124 238.373825,217.546204 236.772629,219.644485 
z"/>
<path fill="#B8655A" opacity="1.000000" stroke="none" 
	d="
M226.981247,208.820496 
	C226.729721,208.322067 226.524414,207.512085 226.453720,206.407486 
	C226.734711,206.911560 226.881088,207.710236 226.981247,208.820496 
z"/>
<path fill="#CC695C" opacity="1.000000" stroke="none" 
	d="
M138.896454,80.116905 
	C136.268692,81.187576 133.492340,81.994293 130.338684,82.839050 
	C131.894226,78.975311 135.507904,79.957039 138.896454,80.116905 
z"/>
<path fill="#CC695C" opacity="1.000000" stroke="none" 
	d="
M120.987602,91.272018 
	C121.157532,92.479034 121.013878,93.832535 120.878120,95.595688 
	C117.473175,94.630875 119.760376,92.992935 120.987602,91.272018 
z"/>
<path fill="#CC695C" opacity="1.000000" stroke="none" 
	d="
M122.062096,89.320572 
	C122.160629,89.766357 121.950096,90.324165 121.488556,91.050980 
	C121.409378,90.624191 121.581200,90.028389 122.062096,89.320572 
z"/>
<path fill="#CC695C" opacity="1.000000" stroke="none" 
	d="
M145.738251,81.093582 
	C145.384171,81.235291 144.986252,81.125427 144.318573,80.859421 
	C144.597366,80.749527 145.145874,80.795761 145.738251,81.093582 
z"/>
<path fill="#CC695C" opacity="1.000000" stroke="none" 
	d="
M123.104950,88.203857 
	C123.177849,88.433510 122.969017,88.761833 122.480362,89.186745 
	C122.408096,88.956398 122.615662,88.629463 123.104950,88.203857 
z"/>
<path fill="#CC695C" opacity="1.000000" stroke="none" 
	d="
M129.141541,83.179001 
	C129.155319,83.384949 128.876129,83.664444 128.305984,84.017487 
	C128.292877,83.811539 128.570724,83.532043 129.141541,83.179001 
z"/>
<path fill="#142226" opacity="1.000000" stroke="none" 
	d="
M124.038750,210.991974 
	C124.402763,211.066910 124.572357,211.366058 124.741959,211.665207 
	C124.492256,211.743683 124.242561,211.822159 123.749191,211.802094 
	C123.618462,211.541107 123.731392,211.378662 124.038750,210.991974 
z"/>
<path fill="#3D494A" opacity="1.000000" stroke="none" 
	d="
M75.618660,209.306671 
	C77.740990,209.716614 79.511749,210.269913 81.282509,210.823212 
	C81.154907,211.312836 81.027298,211.802460 80.899689,212.292084 
	C78.457619,212.292084 76.015541,212.292084 72.792206,212.292084 
	C73.900841,211.018967 74.583969,210.234497 75.618660,209.306671 
z"/>
<path fill="#142226" opacity="1.000000" stroke="none" 
	d="
M68.321274,210.245377 
	C68.079681,209.565216 68.203957,209.088287 68.695328,208.785706 
	C68.937325,209.456238 68.812233,209.952423 68.321274,210.245377 
z"/>
<path fill="#E8604E" opacity="1.000000" stroke="none" 
	d="
M95.922668,63.485226 
	C95.623703,64.078003 95.390976,64.273552 95.044250,64.680832 
	C91.576210,64.951729 87.303810,65.472855 87.310181,60.874752 
	C87.316177,56.542744 91.142502,55.627155 95.416687,56.132530 
	C95.860001,58.478981 95.910667,60.767078 95.922668,63.485226 
z"/>
</svg>