<svg xmlns="http://www.w3.org/2000/svg" xmlns:xlink="http://www.w3.org/1999/xlink" width="500" zoomAndPan="magnify" viewBox="0 0 375 374.999991" height="500" preserveAspectRatio="xMidYMid meet" version="1.0"><defs><g/></defs><path stroke-linecap="butt" transform="matrix(0.70845, 0.246168, -0.246168, 0.70845, 2.061399, 103.057368)" fill="none" stroke-linejoin="miter" d="M -0.00165461 0.498547 L 179.760319 0.50162 " stroke="#ffffff" stroke-width="1" stroke-opacity="1" stroke-miterlimit="4"/><path stroke-linecap="butt" transform="matrix(0.708743, -0.245323, 0.245323, 0.708743, 244.278401, 147.306715)" fill="none" stroke-linejoin="miter" d="M 0.00201952 0.499386 L 180.377385 0.499801 " stroke="#ffffff" stroke-width="1" stroke-opacity="1" stroke-miterlimit="4"/><path stroke-linecap="butt" transform="matrix(0, -0.75, 0.75, 0, 306.738236, 317.86911)" fill="none" stroke-linejoin="miter" d="M 0.0025627 0.50006 L 200.200493 0.50006 " stroke="#ffffff" stroke-width="1" stroke-opacity="1" stroke-miterlimit="4"/><path stroke-linecap="butt" transform="matrix(0, -0.75, 0.75, 0, 372.135479, 253.556057)" fill="none" stroke-linejoin="miter" d="M 0.00182593 0.501653 L 200.199756 0.501653 " stroke="#ffffff" stroke-width="1" stroke-opacity="1" stroke-miterlimit="4"/><path stroke-linecap="butt" transform="matrix(0.75, 0, 0, 0.75, 1.938483, 252.639768)" fill="none" stroke-linejoin="miter" d="M -0.00131055 0.501142 L 143.071616 0.501142 " stroke="#ffffff" stroke-width="1" stroke-opacity="1" stroke-miterlimit="4"/><path stroke-linecap="butt" transform="matrix(0.75, 0, 0, 0.75, 264.938601, 252.639768)" fill="none" stroke-linejoin="miter" d="M -0.0014676 0.501142 L 143.071458 0.501142 " stroke="#ffffff" stroke-width="1" stroke-opacity="1" stroke-miterlimit="4"/><path stroke-linecap="butt" transform="matrix(0.0682713, 0, 0, 0.0682713, 0.0000045, 151.604654)" fill="none" stroke-linejoin="miter" d="M 91.203091 187.968251 L 394.279078 187.968251 L 394.279078 277.912645 L 211.643898 277.912645 L 211.643898 342.22403 L 368.703287 342.22403 L 368.703287 428.334915 L 211.643898 428.334915 L 211.643898 563.022639 L 91.203091 563.022639 Z M 810.87267 302.91627 C 810.87267 325.802884 804.636068 346.572487 792.22008 365.110644 C 779.918525 383.648801 761.895316 397.266337 738.322104 405.96325 L 821.743812 563.022639 L 686.541139 563.022639 L 619.998309 426.160687 L 575.254978 426.160687 L 575.254978 563.022639 L 454.814172 563.022639 L 454.814172 187.968251 L 684.424127 187.968251 C 711.315899 187.968251 734.25973 193.117739 753.370052 203.531149 C 772.423158 213.830125 786.784509 227.79096 796.33967 245.413653 C 806.009265 263.093562 810.87267 282.261101 810.87267 302.91627 Z M 688.143202 307.836892 C 688.143202 297.995648 684.88186 289.8709 678.301958 283.348215 C 671.83649 276.82553 663.826175 273.506971 654.32823 273.506971 L 575.254978 273.506971 L 575.254978 342.738979 L 654.32823 342.738979 C 663.826175 342.738979 671.83649 339.42042 678.301958 332.726085 C 684.88186 326.031751 688.143202 317.735353 688.143202 307.836892 Z M 878.960347 187.968251 L 1203.320885 187.968251 L 1203.320885 277.912645 L 999.401153 277.912645 L 999.401153 329.693609 L 1173.911586 329.693609 L 1173.911586 415.804494 L 999.401153 415.804494 L 999.401153 473.021029 L 1207.154392 473.021029 L 1207.154392 563.022639 L 878.960347 563.022639 Z M 1272.552892 187.968251 L 1596.91343 187.968251 L 1596.91343 277.912645 L 1392.993699 277.912645 L 1392.993699 329.693609 L 1567.504131 329.693609 L 1567.504131 415.804494 L 1392.993699 415.804494 L 1392.993699 473.021029 L 1600.746938 473.021029 L 1600.746938 563.022639 L 1272.552892 563.022639 Z M 1666.145437 187.968251 L 1786.586244 187.968251 L 1786.586244 467.013293 L 1979.062668 467.013293 L 1979.062668 563.022639 L 1666.145437 563.022639 Z M 2281.05154 563.022639 L 2265.316993 510.154561 L 2133.833396 510.154561 L 2118.156065 563.022639 L 1994.911648 563.022639 L 2131.716384 187.968251 L 2271.839678 187.968251 L 2408.70163 563.022639 Z M 2159.008671 426.160687 L 2240.198934 426.160687 L 2200.948391 292.560078 L 2198.774163 292.560078 Z M 2722.076593 563.022639 L 2564.616689 380.902408 L 2564.616689 563.022639 L 2453.902693 563.022639 L 2453.902693 187.968251 L 2559.181118 187.968251 L 2716.641023 372.663227 L 2716.641023 187.968251 L 2827.355018 187.968251 L 2827.355018 563.022639 Z M 3086.889221 181.445566 C 3142.446477 181.445566 3186.331559 195.291968 3218.658902 223.099204 C 3251.043461 250.849223 3267.23574 290.557499 3267.23574 342.22403 L 3152.230505 342.22403 C 3152.230505 320.367314 3146.508851 303.08792 3135.065544 290.443066 C 3123.622237 277.740995 3107.315524 271.38996 3086.202623 271.38996 C 3061.885596 271.38996 3044.034037 278.999759 3032.59073 294.276574 C 3021.147423 309.553388 3015.425769 330.780723 3015.425769 358.015794 L 3015.425769 392.91788 C 3015.425769 419.809652 3021.147423 440.97977 3032.59073 456.371018 C 3044.034037 471.819482 3061.542296 479.543714 3085.172725 479.543714 C 3108.402639 479.543714 3126.025331 473.535978 3137.983587 461.577722 C 3150.056276 449.619466 3156.064012 432.683372 3156.064012 410.883872 L 3267.23574 410.883872 C 3267.23574 462.149888 3251.501193 501.400431 3220.089315 528.635501 C 3188.677437 555.927789 3144.277406 569.545324 3086.889221 569.545324 C 3022.921135 569.545324 2974.45873 553.181395 2941.559222 520.56797 C 2908.602498 487.782895 2892.181352 439.434923 2892.181352 375.466837 C 2892.181352 311.498751 2908.602498 263.207995 2941.559222 230.537353 C 2974.45873 197.809495 3022.921135 181.445566 3086.889221 181.445566 Z M 3332.119291 187.968251 L 3656.479829 187.968251 L 3656.479829 277.912645 L 3452.560097 277.912645 L 3452.560097 329.693609 L 3627.07053 329.693609 L 3627.07053 415.804494 L 3452.560097 415.804494 L 3452.560097 473.021029 L 3660.313337 473.021029 L 3660.313337 563.022639 L 3332.119291 563.022639 Z M 4081.770334 302.91627 C 4081.770334 325.802884 4075.533732 346.572487 4063.117744 365.110644 C 4050.758972 383.648801 4032.79298 397.266337 4009.219768 405.96325 L 4092.641476 563.022639 L 3957.438804 563.022639 L 3890.895973 426.160687 L 3846.152643 426.160687 L 3846.152643 563.022639 L 3725.711836 563.022639 L 3725.711836 187.968251 L 3955.321792 187.968251 C 3982.213563 187.968251 4005.157394 193.117739 4024.267717 203.531149 C 4043.320823 213.830125 4057.682173 227.79096 4067.237334 245.413653 C 4076.906929 263.093562 4081.770334 282.261101 4081.770334 302.91627 Z M 3959.040867 307.836892 C 3959.040867 297.995648 3955.779524 289.8709 3949.199622 283.348215 C 3942.734154 276.82553 3934.723839 273.506971 3925.225894 273.506971 L 3846.152643 273.506971 L 3846.152643 342.738979 L 3925.225894 342.738979 C 3934.723839 342.738979 3942.734154 339.42042 3949.199622 332.726085 C 3955.779524 326.031751 3959.040867 317.735353 3959.040867 307.836892 Z M 4402.86953 563.022639 L 4402.86953 420.725116 L 4270.298818 420.725116 L 4270.298818 563.022639 L 4149.858011 563.022639 L 4149.858011 187.968251 L 4270.298818 187.968251 L 4270.298818 324.772987 L 4402.86953 324.772987 L 4402.86953 187.968251 L 4523.310336 187.968251 L 4523.310336 563.022639 Z M 4977.437975 411.91377 C 4977.437975 463.237002 4961.245696 502.315895 4928.861137 529.207667 C 4896.533795 556.099438 4850.588917 569.545324 4790.969287 569.545324 C 4731.349658 569.545324 4685.233131 556.099438 4652.676922 529.207667 C 4620.17793 502.315895 4603.985651 463.237002 4603.985651 411.91377 L 4603.985651 187.968251 L 4724.426457 187.968251 L 4724.426457 410.368923 C 4724.426457 431.481825 4730.033678 448.24627 4741.305335 460.776691 C 4752.576992 473.307112 4768.940921 479.543714 4790.454339 479.543714 C 4811.910539 479.543714 4828.331685 473.192679 4839.774992 460.490608 C 4851.275516 447.845754 4856.997169 431.081309 4856.997169 410.368923 L 4856.997169 187.968251 L 4977.437975 187.968251 Z M 5307.749033 187.968251 C 5326.630489 187.968251 5344.024316 191.858976 5359.81608 199.640424 C 5375.607844 207.47909 5388.081048 218.464665 5397.350127 232.654365 C 5406.619206 246.844066 5411.310961 262.63583 5411.310961 280.029656 C 5411.310961 326.2034 5390.426926 355.2694 5348.601639 367.342089 L 5348.601639 369.459101 C 5396.263013 380.387459 5420.065091 411.627687 5420.065091 463.179785 C 5420.065091 482.862273 5415.258902 500.2561 5405.589308 515.361265 C 5395.97693 530.409214 5382.817127 542.138604 5366.052682 550.492218 C 5349.345454 558.845832 5331.036163 563.022639 5311.067592 563.022639 L 5058.056073 563.022639 L 5058.056073 187.968251 Z M 5178.49688 334.099282 L 5261.460856 334.099282 C 5269.413954 334.099282 5276.051072 331.295672 5281.257777 325.688451 C 5286.578915 320.024014 5289.268092 312.986381 5289.268092 304.518333 L 5289.268092 299.197196 C 5289.268092 291.129664 5286.521698 284.320896 5281.028911 278.713676 C 5275.59334 273.049239 5269.070655 270.188412 5261.460856 270.188412 L 5178.49688 270.188412 Z M 5178.49688 475.82464 L 5270.100553 475.82464 C 5278.168084 475.82464 5284.805202 473.021029 5290.069123 467.413809 C 5295.275828 461.749372 5297.907789 454.711738 5297.907789 446.300907 L 5297.907789 440.80812 C 5297.907789 432.454506 5295.275828 425.531305 5290.069123 419.924085 C 5284.805202 414.259648 5278.168084 411.398821 5270.100553 411.398821 L 5178.49688 411.398821 Z M 5178.49688 475.82464 " stroke="#ff3131" stroke-width="20.443388" stroke-opacity="1" stroke-miterlimit="4"/><g fill="#cfa75e" fill-opacity="1"><g transform="translate(123.994994, 211.940093)"><g><path d="M 1.074219 0 L 3.105469 0 L 3.105469 -3.082031 L 6.355469 -3.082031 L 6.355469 -4.871094 L 3.105469 -4.871094 L 3.105469 -7.109375 L 6.6875 -7.109375 L 6.6875 -8.949219 L 1.074219 -8.949219 Z M 1.074219 0 "/></g></g></g><g fill="#cfa75e" fill-opacity="1"><g transform="translate(131.243411, 211.940093)"><g><path d="M 5.316406 0.179688 C 8.117188 0.179688 10.097656 -1.738281 10.097656 -4.472656 C 10.097656 -7.210938 8.117188 -9.128906 5.316406 -9.128906 C 2.519531 -9.128906 0.550781 -7.210938 0.550781 -4.472656 C 0.550781 -1.738281 2.519531 0.179688 5.316406 0.179688 Z M 2.621094 -4.472656 C 2.621094 -6.085938 3.734375 -7.199219 5.316406 -7.199219 C 6.917969 -7.199219 8.015625 -6.085938 8.015625 -4.472656 C 8.015625 -2.863281 6.917969 -1.75 5.316406 -1.75 C 3.734375 -1.75 2.621094 -2.863281 2.621094 -4.472656 Z M 2.621094 -4.472656 "/></g></g></g><g fill="#cfa75e" fill-opacity="1"><g transform="translate(141.892319, 211.940093)"><g><path d="M 1.074219 0 L 3.105469 0 L 3.105469 -2.785156 L 4.449219 -2.785156 L 6.046875 0 L 8.398438 0 L 6.546875 -3.105469 C 7.621094 -3.578125 8.246094 -4.550781 8.246094 -5.867188 C 8.246094 -7.773438 6.941406 -8.949219 4.894531 -8.949219 L 1.074219 -8.949219 Z M 3.082031 -4.5 L 3.082031 -7.210938 L 4.628906 -7.210938 C 5.625 -7.210938 6.1875 -6.722656 6.1875 -5.855469 C 6.1875 -4.984375 5.625 -4.5 4.628906 -4.5 Z M 3.082031 -4.5 "/></g></g></g><g fill="#cfa75e" fill-opacity="1"><g transform="translate(150.892118, 211.940093)"><g/></g></g><g fill="#cfa75e" fill-opacity="1"><g transform="translate(153.896311, 211.940093)"><g><path d="M 1.074219 0 L 4.613281 0 C 7.441406 0 9.332031 -1.800781 9.332031 -4.472656 C 9.332031 -7.132812 7.441406 -8.949219 4.613281 -8.949219 L 1.074219 -8.949219 Z M 3.105469 -1.867188 L 3.105469 -7.082031 L 4.550781 -7.082031 C 6.160156 -7.082031 7.25 -6.046875 7.25 -4.472656 C 7.25 -2.902344 6.160156 -1.867188 4.578125 -1.867188 Z M 3.105469 -1.867188 "/></g></g></g><g fill="#cfa75e" fill-opacity="1"><g transform="translate(163.765405, 211.940093)"><g><path d="M 1.074219 0 L 7.09375 0 L 7.09375 -1.726562 L 3.09375 -1.726562 L 3.09375 -3.683594 L 6.609375 -3.683594 L 6.609375 -5.382812 L 3.09375 -5.382812 L 3.09375 -7.234375 L 6.953125 -7.234375 L 6.953125 -8.949219 L 1.074219 -8.949219 Z M 1.074219 0 "/></g></g></g><g fill="#cfa75e" fill-opacity="1"><g transform="translate(171.51239, 211.940093)"><g><path d="M 3.554688 0 L 5.546875 0 L 8.988281 -8.949219 L 6.8125 -8.949219 L 4.5625 -2.925781 L 3.488281 -5.765625 L 2.300781 -8.949219 L 0.113281 -8.949219 Z M 3.554688 0 "/></g></g></g><g fill="#cfa75e" fill-opacity="1"><g transform="translate(180.61446, 211.940093)"><g><path d="M 1.074219 0 L 7.09375 0 L 7.09375 -1.726562 L 3.09375 -1.726562 L 3.09375 -3.683594 L 6.609375 -3.683594 L 6.609375 -5.382812 L 3.09375 -5.382812 L 3.09375 -7.234375 L 6.953125 -7.234375 L 6.953125 -8.949219 L 1.074219 -8.949219 Z M 1.074219 0 "/></g></g></g><g fill="#cfa75e" fill-opacity="1"><g transform="translate(188.361445, 211.940093)"><g><path d="M 1.074219 0 L 7.019531 0 L 7.019531 -1.90625 L 3.105469 -1.90625 L 3.105469 -8.949219 L 1.074219 -8.949219 Z M 1.074219 0 "/></g></g></g><g fill="#cfa75e" fill-opacity="1"><g transform="translate(195.724913, 211.940093)"><g><path d="M 5.316406 0.179688 C 8.117188 0.179688 10.097656 -1.738281 10.097656 -4.472656 C 10.097656 -7.210938 8.117188 -9.128906 5.316406 -9.128906 C 2.519531 -9.128906 0.550781 -7.210938 0.550781 -4.472656 C 0.550781 -1.738281 2.519531 0.179688 5.316406 0.179688 Z M 2.621094 -4.472656 C 2.621094 -6.085938 3.734375 -7.199219 5.316406 -7.199219 C 6.917969 -7.199219 8.015625 -6.085938 8.015625 -4.472656 C 8.015625 -2.863281 6.917969 -1.75 5.316406 -1.75 C 3.734375 -1.75 2.621094 -2.863281 2.621094 -4.472656 Z M 2.621094 -4.472656 "/></g></g></g><g fill="#cfa75e" fill-opacity="1"><g transform="translate(206.373818, 211.940093)"><g><path d="M 1.074219 0 L 3.105469 0 L 3.105469 -2.492188 L 4.578125 -2.492188 C 6.738281 -2.492188 8.128906 -3.757812 8.128906 -5.714844 C 8.128906 -7.683594 6.738281 -8.949219 4.578125 -8.949219 L 1.074219 -8.949219 Z M 3.09375 -4.246094 L 3.09375 -7.171875 L 4.410156 -7.171875 C 5.472656 -7.171875 6.058594 -6.636719 6.058594 -5.703125 C 6.058594 -4.769531 5.472656 -4.246094 4.410156 -4.246094 Z M 3.09375 -4.246094 "/></g></g></g><g fill="#cfa75e" fill-opacity="1"><g transform="translate(214.875043, 211.940093)"><g><path d="M 1.074219 0 L 3.09375 0 L 3.09375 -5.394531 L 5.265625 -2.210938 L 6.671875 -2.210938 L 8.847656 -5.382812 L 8.847656 0 L 10.867188 0 L 10.867188 -8.949219 L 9.152344 -8.949219 L 5.984375 -4.308594 L 2.800781 -8.949219 L 1.074219 -8.949219 Z M 1.074219 0 "/></g></g></g><g fill="#cfa75e" fill-opacity="1"><g transform="translate(226.815112, 211.940093)"><g><path d="M 1.074219 0 L 7.09375 0 L 7.09375 -1.726562 L 3.09375 -1.726562 L 3.09375 -3.683594 L 6.609375 -3.683594 L 6.609375 -5.382812 L 3.09375 -5.382812 L 3.09375 -7.234375 L 6.953125 -7.234375 L 6.953125 -8.949219 L 1.074219 -8.949219 Z M 1.074219 0 "/></g></g></g><g fill="#cfa75e" fill-opacity="1"><g transform="translate(234.562093, 211.940093)"><g><path d="M 1.074219 0 L 3.09375 0 L 3.09375 -5.484375 L 7.042969 0 L 8.769531 0 L 8.769531 -8.949219 L 6.75 -8.949219 L 6.75 -3.503906 L 2.800781 -8.949219 L 1.074219 -8.949219 Z M 1.074219 0 "/></g></g></g><g fill="#cfa75e" fill-opacity="1"><g transform="translate(244.405618, 211.940093)"><g><path d="M 3.222656 0 L 5.253906 0 L 5.253906 -7.042969 L 8.09375 -7.042969 L 8.09375 -8.949219 L 0.382812 -8.949219 L 0.382812 -7.042969 L 3.222656 -7.042969 Z M 3.222656 0 "/></g></g></g><g fill="#cfa75e" fill-opacity="1"><g transform="translate(146.338842, 151.96248)"><g><path d="M 3.414062 0 L 5.445312 0 L 5.445312 -3.15625 L 8.730469 -8.949219 L 6.417969 -8.949219 L 5.316406 -6.878906 L 4.4375 -5.253906 L 3.542969 -6.878906 L 2.429688 -8.949219 L 0.113281 -8.949219 L 3.414062 -3.132812 Z M 3.414062 0 "/></g></g></g><g fill="#cfa75e" fill-opacity="1"><g transform="translate(155.185234, 151.96248)"><g><path d="M 5.316406 0.179688 C 8.117188 0.179688 10.097656 -1.738281 10.097656 -4.472656 C 10.097656 -7.210938 8.117188 -9.128906 5.316406 -9.128906 C 2.519531 -9.128906 0.550781 -7.210938 0.550781 -4.472656 C 0.550781 -1.738281 2.519531 0.179688 5.316406 0.179688 Z M 2.621094 -4.472656 C 2.621094 -6.085938 3.734375 -7.199219 5.316406 -7.199219 C 6.917969 -7.199219 8.015625 -6.085938 8.015625 -4.472656 C 8.015625 -2.863281 6.917969 -1.75 5.316406 -1.75 C 3.734375 -1.75 2.621094 -2.863281 2.621094 -4.472656 Z M 2.621094 -4.472656 "/></g></g></g><g fill="#cfa75e" fill-opacity="1"><g transform="translate(165.834141, 151.96248)"><g><path d="M 4.730469 0.179688 C 7.058594 0.179688 8.476562 -1.277344 8.476562 -3.683594 L 8.476562 -8.949219 L 6.441406 -8.949219 L 6.441406 -3.824219 C 6.441406 -2.453125 5.867188 -1.75 4.730469 -1.75 C 3.59375 -1.75 3.015625 -2.453125 3.015625 -3.824219 L 3.015625 -8.949219 L 0.984375 -8.949219 L 0.984375 -3.683594 C 0.984375 -1.277344 2.402344 0.179688 4.730469 0.179688 Z M 4.730469 0.179688 "/></g></g></g><g fill="#cfa75e" fill-opacity="1"><g transform="translate(175.294157, 151.96248)"><g><path d="M 1.074219 0 L 3.105469 0 L 3.105469 -2.785156 L 4.449219 -2.785156 L 6.046875 0 L 8.398438 0 L 6.546875 -3.105469 C 7.621094 -3.578125 8.246094 -4.550781 8.246094 -5.867188 C 8.246094 -7.773438 6.941406 -8.949219 4.894531 -8.949219 L 1.074219 -8.949219 Z M 3.082031 -4.5 L 3.082031 -7.210938 L 4.628906 -7.210938 C 5.625 -7.210938 6.1875 -6.722656 6.1875 -5.855469 C 6.1875 -4.984375 5.625 -4.5 4.628906 -4.5 Z M 3.082031 -4.5 "/></g></g></g><g fill="#cfa75e" fill-opacity="1"><g transform="translate(184.293953, 151.96248)"><g/></g></g><g fill="#cfa75e" fill-opacity="1"><g transform="translate(187.298147, 151.96248)"><g><path d="M 6.609375 0 L 8.640625 0 L 8.640625 -8.949219 L 6.609375 -8.949219 L 6.609375 -5.511719 L 3.105469 -5.511719 L 3.105469 -8.949219 L 1.074219 -8.949219 L 1.074219 0 L 3.105469 0 L 3.105469 -3.605469 L 6.609375 -3.605469 Z M 6.609375 0 "/></g></g></g><g fill="#cfa75e" fill-opacity="1"><g transform="translate(197.013838, 151.96248)"><g><path d="M 5.316406 0.179688 C 8.117188 0.179688 10.097656 -1.738281 10.097656 -4.472656 C 10.097656 -7.210938 8.117188 -9.128906 5.316406 -9.128906 C 2.519531 -9.128906 0.550781 -7.210938 0.550781 -4.472656 C 0.550781 -1.738281 2.519531 0.179688 5.316406 0.179688 Z M 2.621094 -4.472656 C 2.621094 -6.085938 3.734375 -7.199219 5.316406 -7.199219 C 6.917969 -7.199219 8.015625 -6.085938 8.015625 -4.472656 C 8.015625 -2.863281 6.917969 -1.75 5.316406 -1.75 C 3.734375 -1.75 2.621094 -2.863281 2.621094 -4.472656 Z M 2.621094 -4.472656 "/></g></g></g><g fill="#cfa75e" fill-opacity="1"><g transform="translate(207.662747, 151.96248)"><g><path d="M 1.074219 0 L 3.09375 0 L 3.09375 -5.394531 L 5.265625 -2.210938 L 6.671875 -2.210938 L 8.847656 -5.382812 L 8.847656 0 L 10.867188 0 L 10.867188 -8.949219 L 9.152344 -8.949219 L 5.984375 -4.308594 L 2.800781 -8.949219 L 1.074219 -8.949219 Z M 1.074219 0 "/></g></g></g><g fill="#cfa75e" fill-opacity="1"><g transform="translate(219.602816, 151.96248)"><g><path d="M 1.074219 0 L 7.09375 0 L 7.09375 -1.726562 L 3.09375 -1.726562 L 3.09375 -3.683594 L 6.609375 -3.683594 L 6.609375 -5.382812 L 3.09375 -5.382812 L 3.09375 -7.234375 L 6.953125 -7.234375 L 6.953125 -8.949219 L 1.074219 -8.949219 Z M 1.074219 0 "/></g></g></g></svg>